<svg id="svg" version="1.1" xmlns="http://www.w3.org/2000/svg" xmlns:xlink="http://www.w3.org/1999/xlink" width="400" height="400" viewBox="0, 0, 400,400"><g id="svgg"><path id="path0" d="M157.407 9.066 C 156.493 9.586,155.846 9.866,151.852 11.470 C 148.649 12.756,142.085 16.140,137.729 18.750 C 136.582 19.438,135.457 20.000,135.229 20.000 C 135.001 20.000,134.815 20.167,134.815 20.370 C 134.815 20.574,134.632 20.741,134.409 20.741 C 134.186 20.741,133.481 21.116,132.843 21.574 C 131.446 22.577,130.451 23.180,129.402 23.659 C 128.972 23.856,128.515 24.291,128.386 24.625 C 128.258 24.959,127.986 25.128,127.780 25.002 C 127.575 24.875,127.407 24.919,127.407 25.101 C 127.407 25.282,126.954 25.667,126.400 25.956 C 125.846 26.245,125.116 26.731,124.777 27.037 C 123.661 28.045,122.427 28.937,121.021 29.752 C 120.259 30.194,119.634 30.764,119.632 31.019 C 119.631 31.273,119.380 31.481,119.074 31.481 C 118.769 31.481,118.519 31.653,118.519 31.863 C 118.519 32.074,118.227 32.357,117.871 32.494 C 117.514 32.631,116.723 33.196,116.111 33.751 C 115.500 34.305,114.583 35.118,114.074 35.558 C 110.643 38.519,108.613 40.344,107.588 41.389 C 106.938 42.051,106.215 42.593,105.981 42.593 C 105.747 42.593,105.556 42.736,105.556 42.911 C 105.556 43.086,103.889 44.918,101.852 46.982 C 99.815 49.047,98.148 50.817,98.148 50.917 C 98.148 51.016,97.606 51.661,96.944 52.351 C 95.035 54.338,93.650 55.932,91.750 58.326 C 89.630 60.998,87.738 63.298,87.201 63.854 C 86.986 64.077,86.700 64.551,86.565 64.907 C 86.430 65.264,86.148 65.556,85.938 65.556 C 85.727 65.556,85.556 65.806,85.556 66.111 C 85.556 66.417,85.417 66.667,85.248 66.667 C 85.078 66.667,84.400 67.500,83.740 68.519 C 83.080 69.537,82.385 70.370,82.196 70.370 C 82.007 70.370,81.852 70.704,81.852 71.111 C 81.852 71.519,81.704 71.852,81.524 71.852 C 81.343 71.852,80.919 72.435,80.580 73.148 C 80.242 73.861,79.806 74.444,79.612 74.444 C 79.418 74.444,79.259 74.669,79.259 74.943 C 79.259 75.217,78.926 75.742,78.519 76.111 C 78.111 76.480,77.778 77.011,77.778 77.291 C 77.778 77.572,77.528 77.897,77.222 78.014 C 76.917 78.131,76.667 78.434,76.667 78.687 C 76.667 78.939,76.333 79.530,75.926 80.000 C 75.519 80.470,75.185 81.079,75.185 81.353 C 75.185 81.627,75.059 81.852,74.905 81.852 C 74.751 81.852,74.390 82.394,74.102 83.056 C 73.814 83.718,73.478 84.343,73.355 84.444 C 73.233 84.546,72.926 85.046,72.674 85.556 C 72.421 86.065,71.883 86.981,71.479 87.593 C 71.074 88.204,70.559 89.162,70.335 89.722 C 70.111 90.282,69.790 90.741,69.622 90.741 C 69.454 90.741,69.124 91.324,68.889 92.037 C 68.654 92.750,68.307 93.333,68.119 93.333 C 67.932 93.333,67.778 93.495,67.778 93.694 C 67.778 94.175,65.849 98.283,65.511 98.522 C 65.364 98.626,65.129 99.168,64.989 99.726 C 64.849 100.284,64.586 100.741,64.404 100.741 C 64.223 100.741,64.074 101.052,64.074 101.432 C 64.074 101.811,63.741 102.546,63.333 103.064 C 62.926 103.582,62.593 104.239,62.593 104.525 C 62.593 104.810,62.348 105.367,62.049 105.763 C 61.750 106.158,61.500 106.761,61.493 107.103 C 61.487 107.445,61.267 107.945,61.004 108.214 C 60.742 108.483,60.220 109.537,59.844 110.556 C 59.468 111.574,58.771 113.278,58.294 114.342 C 57.817 115.406,57.320 116.699,57.191 117.216 C 57.061 117.732,56.807 118.247,56.626 118.359 C 56.444 118.471,56.295 118.844,56.294 119.189 C 56.293 119.533,56.043 120.292,55.738 120.876 C 55.434 121.459,55.185 122.092,55.185 122.282 C 55.185 122.473,54.852 123.318,54.444 124.162 C 54.037 125.005,53.704 125.983,53.704 126.336 C 53.704 126.688,53.472 127.449,53.189 128.026 C 52.461 129.510,51.835 131.403,51.447 133.294 C 51.264 134.189,50.961 135.105,50.775 135.331 C 50.589 135.556,50.317 136.407,50.170 137.222 C 50.023 138.037,49.747 138.901,49.556 139.142 C 49.366 139.383,49.140 140.141,49.055 140.826 C 48.970 141.512,48.569 143.064,48.163 144.277 C 47.757 145.489,47.422 146.919,47.417 147.455 C 47.412 147.990,47.157 149.026,46.852 149.758 C 46.546 150.489,46.296 151.591,46.296 152.206 C 46.296 152.822,45.963 154.202,45.556 155.274 C 45.148 156.345,44.815 157.826,44.815 158.565 C 44.815 159.303,44.565 160.615,44.259 161.481 C 43.954 162.348,43.702 163.743,43.700 164.584 C 43.697 165.424,43.447 166.929,43.144 167.929 C 42.841 168.929,42.587 170.596,42.580 171.633 C 42.572 172.670,42.296 174.602,41.965 175.926 C 40.941 180.028,40.881 224.048,41.894 228.889 C 42.893 233.665,42.946 233.769,43.601 232.222 C 43.903 231.509,44.258 230.843,44.390 230.741 C 44.522 230.639,45.109 229.639,45.696 228.519 C 47.856 224.393,49.296 221.780,50.192 220.360 C 50.697 219.559,51.111 218.734,51.111 218.526 C 51.111 218.318,51.416 217.844,51.788 217.471 C 52.160 217.099,52.842 216.016,53.302 215.064 C 53.763 214.112,54.292 213.333,54.477 213.333 C 54.663 213.333,54.815 213.020,54.815 212.638 C 54.815 212.255,55.062 211.737,55.365 211.486 C 55.667 211.235,56.281 210.296,56.728 209.400 C 57.176 208.504,57.845 207.496,58.216 207.161 C 58.586 206.826,58.889 206.399,58.889 206.213 C 58.889 206.027,59.389 205.147,60.000 204.259 C 60.611 203.371,61.111 202.492,61.111 202.305 C 61.111 202.119,61.444 201.665,61.852 201.296 C 62.259 200.928,62.593 200.397,62.593 200.116 C 62.593 199.836,62.843 199.510,63.148 199.393 C 63.454 199.276,63.704 198.956,63.704 198.682 C 63.704 198.409,63.916 198.052,64.176 197.889 C 64.436 197.726,65.061 196.801,65.564 195.833 C 66.068 194.866,66.699 194.074,66.966 194.074 C 67.233 194.074,67.361 193.928,67.251 193.750 C 67.141 193.572,67.440 193.007,67.915 192.494 C 68.390 191.982,68.882 191.294,69.007 190.966 C 69.133 190.639,69.408 190.370,69.618 190.370 C 69.828 190.370,70.000 190.219,70.000 190.033 C 70.000 189.522,71.940 186.667,72.288 186.667 C 72.456 186.667,72.593 186.417,72.593 186.111 C 72.593 185.806,72.742 185.556,72.924 185.556 C 73.107 185.556,73.766 184.764,74.390 183.796 C 75.014 182.829,75.989 181.528,76.558 180.907 C 77.127 180.285,78.053 179.077,78.616 178.221 C 79.179 177.366,79.804 176.667,80.005 176.667 C 80.206 176.667,80.370 176.431,80.370 176.142 C 80.370 175.853,80.495 175.562,80.648 175.494 C 80.801 175.426,81.820 174.287,82.913 172.963 C 84.006 171.639,85.048 170.500,85.228 170.432 C 85.408 170.364,85.556 170.067,85.556 169.772 C 85.556 169.477,85.806 169.140,86.111 169.023 C 86.417 168.906,86.667 168.577,86.667 168.294 C 86.667 168.010,86.917 167.778,87.222 167.778 C 87.528 167.778,87.778 167.636,87.778 167.463 C 87.778 167.289,88.611 166.264,89.630 165.185 C 90.648 164.106,91.481 163.081,91.481 162.908 C 91.481 162.734,91.741 162.593,92.059 162.593 C 92.376 162.593,92.559 162.468,92.465 162.315 C 92.371 162.162,92.956 161.370,93.767 160.556 C 96.119 158.189,96.278 157.659,96.510 151.404 C 96.625 148.289,96.889 144.907,97.097 143.889 C 97.304 142.870,97.614 140.537,97.785 138.704 C 97.955 136.870,98.361 133.870,98.687 132.037 C 100.461 122.046,100.854 120.041,101.330 118.545 C 101.617 117.643,101.858 116.393,101.865 115.767 C 101.872 115.142,102.116 114.213,102.407 113.704 C 102.699 113.194,102.943 112.258,102.950 111.623 C 102.957 110.989,103.275 109.655,103.656 108.661 C 104.317 106.934,105.001 104.593,105.426 102.593 C 105.534 102.083,105.858 101.141,106.145 100.500 C 106.432 99.858,106.667 98.933,106.667 98.444 C 106.667 97.955,106.805 97.397,106.974 97.204 C 107.142 97.010,107.908 94.894,108.674 92.501 C 109.441 90.108,110.220 88.056,110.405 87.942 C 110.589 87.828,110.741 87.244,110.741 86.645 C 110.741 86.046,110.905 85.556,111.107 85.556 C 111.308 85.556,111.579 84.892,111.709 84.081 C 111.838 83.270,112.173 82.416,112.454 82.184 C 112.734 81.951,112.963 81.377,112.963 80.907 C 112.963 80.437,113.213 79.803,113.519 79.497 C 113.824 79.192,114.074 78.754,114.074 78.525 C 114.074 78.104,115.276 75.180,115.939 73.987 C 116.135 73.633,116.296 73.091,116.296 72.783 C 116.296 72.474,116.463 72.222,116.667 72.222 C 116.870 72.222,117.037 72.029,117.037 71.793 C 117.037 71.401,119.271 66.495,120.046 65.185 C 120.227 64.880,120.469 64.380,120.585 64.074 C 120.700 63.769,120.951 63.269,121.143 62.963 C 121.335 62.657,121.673 61.949,121.893 61.389 C 122.114 60.829,122.427 60.370,122.589 60.370 C 122.750 60.370,122.986 59.959,123.112 59.456 C 123.239 58.953,123.827 57.744,124.420 56.770 C 125.013 55.797,126.196 53.625,127.048 51.944 C 127.900 50.264,128.734 48.889,128.903 48.889 C 129.071 48.889,129.326 48.522,129.468 48.073 C 129.611 47.624,129.955 47.029,130.234 46.750 C 130.513 46.471,130.741 46.005,130.741 45.714 C 130.741 45.423,130.891 45.185,131.074 45.185 C 131.257 45.185,131.772 44.477,132.220 43.611 C 132.667 42.745,133.653 41.204,134.411 40.185 C 135.170 39.167,135.899 38.042,136.032 37.685 C 136.164 37.329,136.445 37.037,136.655 37.037 C 136.865 37.037,137.037 36.818,137.037 36.551 C 137.037 36.284,137.370 35.708,137.778 35.271 C 138.185 34.833,138.519 34.302,138.519 34.090 C 138.519 33.877,138.647 33.704,138.803 33.704 C 138.960 33.704,140.120 32.245,141.380 30.463 C 142.641 28.681,144.180 26.670,144.799 25.996 C 145.419 25.321,145.926 24.692,145.926 24.597 C 145.926 24.432,146.904 23.320,149.537 20.489 C 150.199 19.778,150.741 19.104,150.741 18.992 C 150.741 18.880,151.157 18.402,151.667 17.931 C 152.176 17.459,152.593 16.991,152.593 16.892 C 152.593 16.793,154.343 14.930,156.481 12.752 C 158.620 10.574,160.370 8.730,160.370 8.655 C 160.370 8.300,158.230 8.597,157.407 9.066 M228.333 155.381 C 228.130 155.457,225.880 155.712,223.333 155.949 C 215.229 156.701,211.400 157.320,208.321 158.376 C 207.499 158.658,206.456 158.889,206.002 158.889 C 205.548 158.889,204.471 159.195,203.607 159.568 C 201.679 160.403,199.802 161.081,198.333 161.473 C 197.236 161.766,195.366 162.504,193.092 163.542 C 192.450 163.834,191.835 164.074,191.725 164.074 C 191.285 164.074,185.177 167.120,184.981 167.438 C 184.856 167.640,187.674 167.778,191.923 167.778 C 196.742 167.778,200.021 167.959,201.977 168.333 C 203.574 168.639,205.562 168.889,206.395 168.889 C 207.229 168.889,209.006 169.213,210.344 169.608 C 211.683 170.004,214.278 170.679,216.111 171.109 C 221.413 172.353,222.270 172.591,223.104 173.055 C 223.535 173.296,223.972 173.513,224.074 173.537 C 224.176 173.562,224.509 173.682,224.815 173.803 C 225.120 173.925,226.454 174.396,227.778 174.851 C 229.102 175.306,230.448 175.901,230.770 176.173 C 231.091 176.444,231.707 176.667,232.137 176.667 C 232.567 176.667,233.011 176.815,233.123 176.997 C 233.235 177.178,234.787 178.037,236.571 178.904 C 238.355 179.772,239.870 180.624,239.938 180.797 C 240.006 180.970,240.226 181.111,240.427 181.111 C 240.628 181.111,241.519 181.611,242.407 182.222 C 243.296 182.833,244.201 183.333,244.419 183.333 C 244.637 183.333,244.815 183.500,244.815 183.704 C 244.815 183.907,244.967 184.074,245.152 184.074 C 245.664 184.074,248.519 186.014,248.519 186.362 C 248.519 186.530,248.731 186.667,248.992 186.667 C 249.252 186.667,250.012 187.167,250.681 187.778 C 251.350 188.389,252.012 188.889,252.153 188.889 C 252.293 188.889,253.137 189.556,254.028 190.370 C 254.920 191.185,255.795 191.852,255.973 191.852 C 256.151 191.852,256.296 191.997,256.296 192.174 C 256.296 192.352,256.878 192.894,257.590 193.378 C 258.302 193.863,258.885 194.407,258.886 194.587 C 258.890 195.013,260.674 196.667,261.130 196.667 C 261.323 196.667,261.481 196.804,261.481 196.971 C 261.481 197.138,262.565 198.374,263.889 199.718 C 265.213 201.062,266.296 202.324,266.296 202.522 C 266.296 202.721,266.510 202.966,266.772 203.066 C 267.034 203.167,267.742 203.967,268.346 204.845 C 268.950 205.723,269.819 206.850,270.277 207.348 C 271.013 208.149,273.224 211.301,274.259 213.024 C 274.463 213.363,275.182 214.568,275.856 215.701 C 276.531 216.835,277.239 217.859,277.430 217.977 C 277.621 218.095,277.778 218.444,277.778 218.752 C 277.778 219.060,278.028 219.562,278.333 219.868 C 278.639 220.173,278.889 220.719,278.889 221.080 C 278.889 221.441,279.222 222.039,279.630 222.407 C 280.037 222.776,280.370 223.304,280.370 223.581 C 280.370 223.858,280.529 224.374,280.722 224.727 C 282.444 227.877,286.039 237.253,286.649 240.185 C 286.819 241.000,287.130 242.167,287.340 242.778 C 287.550 243.389,287.920 244.889,288.162 246.111 C 288.564 248.140,288.806 250.052,290.014 260.741 C 290.507 265.103,290.535 277.254,290.058 280.000 C 289.628 282.477,289.558 282.397,291.739 281.900 C 292.718 281.677,294.207 281.425,295.048 281.340 C 295.889 281.255,296.889 281.021,297.270 280.821 C 297.651 280.620,298.656 280.342,299.503 280.201 C 300.350 280.061,301.350 279.714,301.725 279.429 C 302.100 279.145,302.673 278.907,302.999 278.901 C 303.556 278.890,305.436 278.124,306.667 277.407 C 306.972 277.229,308.097 276.629,309.167 276.074 C 310.236 275.518,311.111 274.936,311.111 274.779 C 311.111 274.623,311.473 274.379,311.916 274.239 C 312.359 274.098,312.900 273.834,313.120 273.651 C 315.210 271.910,315.776 271.482,315.994 271.482 C 316.133 271.482,316.352 271.148,316.481 270.741 C 316.611 270.333,316.914 270.000,317.155 270.000 C 317.619 270.000,319.618 267.792,321.984 264.665 C 322.770 263.627,323.603 262.659,323.836 262.514 C 324.069 262.368,324.269 262.118,324.281 261.958 C 324.322 261.401,326.001 258.889,326.333 258.889 C 326.516 258.889,326.640 258.764,326.607 258.611 C 326.515 258.182,327.319 256.395,327.714 256.151 C 327.908 256.031,328.176 255.495,328.311 254.959 C 328.445 254.423,328.797 253.743,329.092 253.447 C 329.388 253.152,329.635 252.547,329.641 252.103 C 329.648 251.659,329.898 250.973,330.197 250.577 C 330.496 250.182,330.741 249.494,330.741 249.049 C 330.741 248.603,331.004 247.609,331.325 246.840 C 332.422 244.214,331.690 235.152,330.140 232.165 C 329.859 231.624,329.630 230.670,329.630 230.044 C 329.630 229.419,329.297 228.361,328.890 227.694 C 328.484 227.027,328.150 225.972,328.150 225.349 C 328.149 224.725,327.903 223.892,327.604 223.497 C 327.305 223.101,327.055 222.515,327.049 222.193 C 327.035 221.516,325.420 217.312,324.619 215.869 C 324.320 215.328,324.074 214.640,324.074 214.340 C 324.074 214.040,323.824 213.587,323.519 213.333 C 323.213 213.080,322.963 212.571,322.963 212.203 C 322.963 211.835,322.741 211.313,322.470 211.041 C 322.199 210.770,321.862 210.092,321.722 209.533 C 321.582 208.975,321.304 208.519,321.104 208.519 C 320.904 208.519,320.741 208.206,320.741 207.823 C 320.741 207.441,320.491 206.920,320.185 206.667 C 319.880 206.413,319.630 206.026,319.630 205.807 C 319.630 205.588,318.880 204.291,317.963 202.925 C 317.046 201.558,316.296 200.334,316.296 200.205 C 316.296 200.075,316.130 199.767,315.927 199.521 C 315.724 199.275,314.898 198.157,314.093 197.037 C 313.287 195.917,312.453 194.799,312.240 194.553 C 312.026 194.307,311.852 194.009,311.852 193.892 C 311.852 193.775,311.352 193.190,310.741 192.593 C 310.130 191.995,309.630 191.431,309.630 191.339 C 309.630 190.690,300.613 181.509,297.584 179.074 C 296.570 178.259,295.607 177.384,295.445 177.130 C 295.282 176.875,294.907 176.667,294.611 176.667 C 294.316 176.667,294.074 176.518,294.074 176.336 C 294.074 176.154,292.907 175.208,291.481 174.233 C 290.056 173.259,288.889 172.315,288.889 172.135 C 288.889 171.955,288.741 171.899,288.560 172.011 C 288.380 172.123,288.026 171.966,287.774 171.663 C 287.523 171.359,287.087 171.111,286.807 171.111 C 286.526 171.111,286.296 170.944,286.296 170.741 C 286.296 170.537,286.058 170.370,285.767 170.370 C 285.476 170.370,285.012 170.162,284.735 169.907 C 284.081 169.305,282.305 168.274,281.019 167.750 C 280.458 167.522,280.000 167.185,280.000 167.001 C 280.000 166.817,279.679 166.667,279.286 166.667 C 278.893 166.667,278.321 166.417,278.016 166.111 C 277.710 165.806,277.323 165.555,277.156 165.553 C 276.989 165.552,276.352 165.290,275.741 164.970 C 273.942 164.031,267.588 161.483,267.012 161.470 C 266.720 161.463,266.158 161.213,265.763 160.914 C 265.367 160.615,264.664 160.370,264.200 160.370 C 263.736 160.370,262.762 160.037,262.037 159.630 C 261.312 159.222,260.301 158.889,259.792 158.889 C 259.282 158.889,258.267 158.639,257.535 158.333 C 256.804 158.028,255.737 157.778,255.164 157.778 C 254.591 157.778,253.653 157.592,253.080 157.364 C 250.386 156.296,230.220 154.680,228.333 155.381 " stroke="none" fill="#1c1c1c" fill-rule="evenodd"></path><path id="path1" d="M385.926 25.741 C 385.417 26.032,384.333 26.282,383.519 26.296 C 382.704 26.311,381.620 26.561,381.111 26.852 C 380.602 27.143,379.552 27.387,378.778 27.394 C 378.004 27.402,376.921 27.633,376.370 27.909 C 375.820 28.185,374.287 28.613,372.963 28.859 C 370.373 29.341,368.343 29.900,367.329 30.410 C 366.981 30.585,366.456 30.636,366.162 30.524 C 365.868 30.411,364.954 30.662,364.131 31.082 C 363.309 31.502,362.388 31.750,362.085 31.634 C 361.783 31.518,360.768 31.762,359.831 32.177 C 358.893 32.592,357.881 32.837,357.581 32.722 C 357.282 32.607,357.037 32.708,357.037 32.945 C 357.037 33.183,356.884 33.283,356.698 33.167 C 356.511 33.052,355.886 33.140,355.309 33.363 C 354.732 33.587,353.810 33.829,353.261 33.901 C 352.713 33.974,351.763 34.293,351.150 34.609 C 350.538 34.926,349.540 35.185,348.934 35.185 C 348.327 35.185,347.609 35.407,347.338 35.678 C 347.067 35.949,346.634 36.100,346.376 36.014 C 346.119 35.928,345.120 36.122,344.158 36.444 C 340.640 37.622,338.852 38.148,338.366 38.148 C 338.092 38.148,337.223 38.424,336.434 38.762 C 335.645 39.100,334.642 39.420,334.205 39.473 C 333.768 39.527,332.903 39.833,332.284 40.153 C 331.665 40.473,330.922 40.645,330.633 40.534 C 330.344 40.423,329.505 40.687,328.769 41.121 C 328.034 41.555,327.252 41.800,327.033 41.664 C 326.814 41.529,326.231 41.682,325.737 42.005 C 325.244 42.328,324.372 42.593,323.799 42.593 C 323.226 42.593,322.429 42.822,322.027 43.102 C 321.625 43.382,320.589 43.730,319.724 43.875 C 318.859 44.020,318.070 44.272,317.969 44.435 C 317.868 44.598,317.159 44.848,316.393 44.991 C 315.627 45.134,314.833 45.374,314.630 45.524 C 314.252 45.802,311.377 46.708,310.370 46.867 C 309.374 47.023,307.407 47.933,307.407 48.236 C 307.407 48.399,307.020 48.435,306.547 48.317 C 305.997 48.179,305.509 48.313,305.198 48.688 C 304.902 49.045,304.429 49.187,303.995 49.049 C 303.567 48.913,302.998 49.077,302.577 49.459 C 302.190 49.809,301.243 50.224,300.474 50.382 C 299.033 50.677,296.938 51.358,295.882 51.874 C 295.552 52.036,293.969 52.607,292.364 53.144 C 289.330 54.158,288.230 54.587,286.667 55.366 C 286.157 55.620,285.535 55.753,285.283 55.663 C 285.032 55.572,284.324 55.854,283.712 56.291 C 283.099 56.727,282.435 56.983,282.235 56.860 C 282.036 56.737,281.460 56.907,280.955 57.237 C 280.450 57.568,279.608 57.886,279.084 57.944 C 278.560 58.001,277.831 58.321,277.463 58.654 C 277.095 58.987,276.390 59.265,275.897 59.271 C 275.404 59.278,274.676 59.528,274.281 59.827 C 273.886 60.126,273.198 60.370,272.752 60.370 C 272.307 60.370,271.735 60.620,271.481 60.926 C 271.228 61.231,270.749 61.483,270.418 61.484 C 270.086 61.485,269.398 61.701,268.889 61.964 C 268.380 62.227,266.999 62.743,265.822 63.111 C 264.644 63.479,263.437 64.023,263.139 64.321 C 262.842 64.619,262.429 64.758,262.223 64.630 C 262.016 64.502,261.338 64.760,260.717 65.202 C 260.095 65.645,259.492 65.912,259.376 65.796 C 259.260 65.680,258.645 65.862,258.009 66.201 C 257.372 66.540,256.675 66.783,256.459 66.742 C 256.243 66.700,255.708 67.000,255.271 67.407 C 254.833 67.815,254.072 68.148,253.579 68.148 C 253.087 68.148,252.476 68.398,252.222 68.704 C 251.969 69.009,251.454 69.259,251.078 69.259 C 250.301 69.259,247.656 70.413,247.469 70.833 C 247.401 70.986,247.125 71.111,246.856 71.111 C 246.586 71.111,245.225 71.637,243.831 72.280 C 242.437 72.923,241.073 73.493,240.801 73.548 C 240.528 73.603,239.997 73.927,239.620 74.268 C 239.244 74.608,238.778 74.790,238.585 74.671 C 238.393 74.552,237.790 74.805,237.246 75.232 C 236.702 75.660,236.164 75.918,236.051 75.804 C 235.937 75.691,235.240 75.922,234.502 76.317 C 233.763 76.713,233.016 77.037,232.840 77.037 C 232.665 77.037,231.996 77.411,231.353 77.869 C 230.711 78.326,230.102 78.680,230.000 78.654 C 229.898 78.628,229.429 78.754,228.957 78.933 C 228.486 79.113,227.944 79.259,227.754 79.259 C 227.563 79.259,227.407 79.426,227.407 79.630 C 227.407 79.833,227.193 80.000,226.930 80.000 C 226.400 80.000,223.938 81.196,223.190 81.817 C 222.926 82.036,222.600 82.106,222.466 81.972 C 222.332 81.838,222.222 81.918,222.222 82.149 C 222.222 82.380,221.974 82.474,221.670 82.357 C 221.354 82.236,221.020 82.400,220.889 82.739 C 220.764 83.066,220.334 83.333,219.934 83.333 C 219.534 83.333,218.956 83.583,218.651 83.889 C 218.345 84.194,217.794 84.444,217.426 84.444 C 217.058 84.444,216.550 84.694,216.296 85.000 C 216.043 85.306,215.543 85.556,215.185 85.556 C 214.828 85.556,214.328 85.806,214.074 86.111 C 213.820 86.417,213.312 86.667,212.944 86.667 C 212.576 86.667,212.055 86.879,211.786 87.138 C 211.517 87.398,210.421 88.020,209.352 88.522 C 208.282 89.024,207.407 89.579,207.407 89.757 C 207.407 89.934,207.162 89.985,206.863 89.870 C 206.563 89.755,206.066 89.913,205.758 90.221 C 205.450 90.529,204.820 90.853,204.358 90.942 C 203.896 91.030,203.352 91.327,203.148 91.601 C 202.944 91.875,202.319 92.214,201.759 92.353 C 201.199 92.493,200.741 92.770,200.741 92.970 C 200.741 93.170,200.416 93.333,200.018 93.333 C 199.621 93.333,199.159 93.579,198.991 93.878 C 198.823 94.178,198.357 94.480,197.954 94.549 C 197.552 94.619,196.639 95.039,195.926 95.484 C 195.213 95.929,194.447 96.294,194.224 96.295 C 194.001 96.296,193.520 96.626,193.156 97.028 C 192.792 97.431,192.355 97.675,192.186 97.570 C 192.017 97.466,191.553 97.706,191.155 98.104 C 190.758 98.502,190.336 98.731,190.218 98.613 C 190.101 98.496,189.662 98.709,189.244 99.088 C 188.825 99.467,188.204 99.818,187.863 99.868 C 187.522 99.918,187.055 100.215,186.825 100.529 C 186.596 100.843,186.301 100.992,186.169 100.861 C 186.038 100.729,185.618 100.982,185.237 101.422 C 184.855 101.862,184.389 102.222,184.202 102.222 C 183.716 102.222,181.461 103.404,180.108 104.367 C 179.477 104.817,178.853 105.185,178.724 105.185 C 178.594 105.185,178.136 105.513,177.706 105.913 C 177.276 106.313,176.809 106.569,176.667 106.481 C 176.525 106.394,176.050 106.656,175.612 107.064 C 175.173 107.473,174.815 107.688,174.815 107.542 C 174.815 107.397,174.385 107.682,173.859 108.176 C 173.333 108.670,172.839 108.991,172.760 108.889 C 172.681 108.787,172.292 108.982,171.895 109.321 C 171.498 109.661,171.064 109.829,170.929 109.695 C 170.795 109.561,170.523 109.741,170.324 110.096 C 170.126 110.450,169.820 110.741,169.646 110.741 C 169.336 110.741,164.661 113.681,163.854 114.383 C 163.631 114.577,162.923 115.008,162.280 115.340 C 161.637 115.673,161.111 116.107,161.111 116.306 C 161.111 116.504,160.861 116.667,160.556 116.667 C 160.250 116.667,160.000 116.833,160.000 117.037 C 160.000 117.241,159.661 117.407,159.248 117.407 C 158.834 117.407,158.399 117.657,158.282 117.963 C 158.165 118.269,157.837 118.519,157.553 118.519 C 157.269 118.519,157.037 118.695,157.037 118.911 C 157.037 119.126,156.885 119.209,156.698 119.094 C 156.512 118.978,156.304 119.010,156.235 119.164 C 156.034 119.619,152.024 122.222,151.525 122.222 C 151.273 122.222,151.170 122.389,151.296 122.593 C 151.422 122.796,151.283 122.963,150.987 122.963 C 150.692 122.963,150.350 123.224,150.227 123.542 C 150.105 123.860,149.833 124.014,149.622 123.884 C 149.411 123.754,148.915 124.035,148.520 124.509 C 148.126 124.983,147.797 125.253,147.790 125.109 C 147.783 124.966,147.377 125.216,146.887 125.665 C 145.578 126.865,145.074 127.231,144.352 127.507 C 143.995 127.643,143.704 127.926,143.704 128.137 C 143.704 128.347,143.490 128.519,143.230 128.519 C 142.969 128.519,142.516 128.852,142.222 129.259 C 141.929 129.667,141.501 130.000,141.271 130.000 C 141.042 130.000,140.454 130.335,139.964 130.744 C 139.475 131.153,138.657 131.838,138.148 132.266 C 137.639 132.694,136.672 133.362,136.000 133.750 C 135.328 134.138,134.880 134.620,135.004 134.821 C 135.127 135.021,134.926 135.185,134.555 135.185 C 134.185 135.185,133.670 135.525,133.410 135.940 C 133.151 136.356,132.778 136.596,132.580 136.474 C 132.383 136.352,132.222 136.512,132.222 136.830 C 132.222 137.148,131.997 137.407,131.721 137.407 C 131.445 137.407,130.770 137.824,130.220 138.333 C 129.671 138.843,129.063 139.259,128.870 139.259 C 128.677 139.259,128.519 139.519,128.519 139.837 C 128.519 140.154,128.360 140.316,128.167 140.197 C 127.973 140.077,127.634 140.317,127.413 140.730 C 127.192 141.143,126.867 141.481,126.692 141.481 C 126.336 141.481,124.600 142.893,122.704 144.722 C 122.018 145.384,121.353 145.926,121.225 145.926 C 121.098 145.926,120.182 146.759,119.190 147.778 C 118.198 148.796,117.251 149.630,117.086 149.630 C 116.920 149.630,115.600 150.796,114.151 152.222 C 112.703 153.648,111.426 154.815,111.314 154.815 C 111.009 154.815,109.630 156.255,109.630 156.574 C 109.630 156.727,109.463 156.852,109.259 156.852 C 109.056 156.852,108.879 157.019,108.867 157.222 C 108.855 157.426,108.521 157.712,108.126 157.858 C 107.731 158.005,107.407 158.389,107.407 158.714 C 107.407 159.038,107.241 159.200,107.037 159.074 C 106.833 158.948,106.665 159.063,106.663 159.330 C 106.660 159.597,105.729 160.648,104.592 161.667 C 100.772 165.090,99.601 166.321,99.823 166.680 C 99.944 166.876,99.859 167.037,99.633 167.037 C 99.190 167.037,96.671 169.633,96.668 170.093 C 96.667 170.245,96.417 170.370,96.111 170.370 C 95.806 170.370,95.556 170.519,95.556 170.702 C 95.556 170.884,95.072 171.550,94.481 172.183 C 93.890 172.816,93.482 173.333,93.574 173.333 C 93.666 173.333,93.317 173.727,92.797 174.209 C 92.277 174.691,91.852 175.284,91.852 175.527 C 91.852 175.771,91.685 175.867,91.481 175.741 C 91.278 175.615,91.111 175.648,91.111 175.815 C 91.111 175.982,90.731 176.534,90.266 177.041 C 89.801 177.548,88.930 178.630,88.329 179.444 C 87.728 180.259,86.856 181.295,86.391 181.746 C 85.927 182.197,85.590 182.780,85.644 183.042 C 85.697 183.304,85.532 183.477,85.278 183.426 C 85.023 183.375,84.815 183.498,84.815 183.699 C 84.815 184.079,84.054 185.105,82.778 186.445 C 82.370 186.872,82.071 187.325,82.113 187.451 C 82.155 187.577,81.780 188.064,81.280 188.534 C 80.780 189.004,80.370 189.615,80.370 189.891 C 80.370 190.167,80.120 190.490,79.815 190.607 C 79.509 190.724,79.259 191.118,79.259 191.481 C 79.259 191.845,79.007 192.240,78.698 192.358 C 78.390 192.477,77.977 192.995,77.781 193.509 C 77.586 194.024,77.237 194.444,77.007 194.444 C 76.776 194.444,76.672 194.665,76.775 194.934 C 76.879 195.203,76.640 195.625,76.245 195.872 C 75.850 196.119,75.626 196.482,75.748 196.679 C 75.870 196.876,75.796 197.037,75.584 197.037 C 75.371 197.037,74.777 197.829,74.262 198.796 C 73.133 200.920,72.558 201.841,71.944 202.511 C 71.690 202.789,71.481 203.236,71.481 203.505 C 71.481 203.775,71.221 204.095,70.902 204.217 C 70.584 204.339,70.415 204.587,70.527 204.769 C 70.639 204.950,70.363 205.565,69.914 206.136 C 69.465 206.707,69.063 207.408,69.021 207.692 C 68.979 207.977,68.657 208.421,68.305 208.679 C 67.953 208.936,67.776 209.327,67.913 209.548 C 68.049 209.769,67.866 210.169,67.506 210.438 C 67.146 210.706,66.837 211.093,66.820 211.296 C 66.761 211.976,65.767 214.074,65.504 214.074 C 65.361 214.074,65.134 214.574,65.000 215.185 C 64.866 215.796,64.603 216.296,64.415 216.296 C 64.227 216.296,64.074 216.604,64.074 216.980 C 64.074 217.357,63.741 218.049,63.333 218.519 C 62.926 218.988,62.593 219.567,62.593 219.804 C 62.593 220.041,62.094 221.211,61.484 222.403 C 60.874 223.596,60.457 224.655,60.558 224.756 C 60.660 224.857,60.483 225.226,60.166 225.577 C 59.849 225.927,59.568 226.607,59.542 227.088 C 59.516 227.569,59.215 228.380,58.873 228.889 C 58.532 229.398,57.957 230.731,57.596 231.852 C 57.235 232.972,56.814 234.056,56.660 234.259 C 56.507 234.463,56.260 235.213,56.111 235.926 C 55.962 236.639,55.712 237.389,55.556 237.593 C 55.399 237.796,55.155 238.506,55.013 239.170 C 54.871 239.834,54.507 240.874,54.204 241.480 C 53.902 242.087,53.747 242.734,53.861 242.918 C 53.975 243.102,53.723 244.033,53.301 244.987 C 52.879 245.940,52.623 246.953,52.732 247.238 C 52.842 247.522,52.596 248.718,52.186 249.896 C 51.776 251.074,51.525 252.474,51.628 253.007 C 51.730 253.541,51.488 255.541,51.089 257.451 C 50.522 260.172,50.416 261.670,50.603 264.352 C 50.774 266.804,50.723 267.778,50.421 267.778 C 50.125 267.778,50.000 269.430,50.000 273.333 C 50.000 277.266,50.124 278.889,50.425 278.889 C 50.731 278.889,50.784 279.847,50.615 282.315 C 50.436 284.919,50.553 286.714,51.103 289.800 C 51.501 292.033,51.741 294.202,51.636 294.620 C 51.531 295.038,51.730 296.378,52.078 297.597 C 52.425 298.817,52.688 300.398,52.662 301.111 C 52.636 301.824,52.890 303.241,53.226 304.259 C 53.563 305.278,53.810 306.481,53.776 306.934 C 53.742 307.386,53.907 308.219,54.144 308.785 C 54.381 309.352,54.779 310.648,55.030 311.667 C 55.874 315.101,56.358 316.848,56.672 317.593 C 56.844 318.000,57.262 319.250,57.602 320.370 C 58.451 323.168,59.011 324.444,59.389 324.444 C 59.565 324.444,59.607 324.710,59.483 325.034 C 59.358 325.358,59.560 326.066,59.931 326.608 C 60.302 327.149,60.628 328.007,60.657 328.513 C 60.685 329.019,60.882 329.491,61.095 329.562 C 61.307 329.633,61.481 330.094,61.481 330.586 C 61.481 331.079,61.635 331.481,61.822 331.481 C 62.010 331.481,62.273 331.981,62.407 332.593 C 62.542 333.204,62.805 333.704,62.992 333.704 C 63.180 333.704,63.306 333.829,63.274 333.981 C 63.241 334.134,63.407 334.728,63.644 335.302 C 63.880 335.875,64.074 336.500,64.074 336.691 C 64.074 336.881,64.241 337.037,64.444 337.037 C 64.648 337.037,64.815 337.350,64.815 337.732 C 64.815 338.115,65.065 338.635,65.370 338.889 C 65.676 339.142,65.926 339.500,65.926 339.682 C 65.926 339.865,66.377 340.720,66.927 341.581 C 67.478 342.443,67.969 343.394,68.018 343.694 C 68.067 343.994,68.364 344.427,68.677 344.656 C 68.991 344.886,69.140 345.181,69.009 345.312 C 68.878 345.443,69.130 345.863,69.570 346.245 C 70.010 346.626,70.370 347.239,70.370 347.605 C 70.370 347.972,70.481 348.161,70.617 348.025 C 70.752 347.890,71.323 348.570,71.885 349.538 C 72.447 350.505,73.336 351.747,73.861 352.299 C 74.386 352.850,74.815 353.457,74.815 353.648 C 74.815 353.839,75.293 354.508,75.877 355.133 C 76.462 355.759,76.871 356.338,76.788 356.422 C 76.705 356.505,78.685 358.625,81.189 361.133 C 83.692 363.641,85.699 365.829,85.648 365.995 C 85.597 366.161,85.883 366.296,86.283 366.296 C 86.684 366.296,87.189 366.630,87.407 367.037 C 87.625 367.444,88.048 367.778,88.346 367.778 C 88.645 367.778,88.889 368.028,88.889 368.333 C 88.889 368.639,89.056 368.889,89.259 368.889 C 89.463 368.889,89.951 369.181,90.344 369.537 C 91.623 370.698,92.186 371.111,92.488 371.111 C 92.651 371.111,92.997 371.451,93.256 371.866 C 93.516 372.282,93.889 372.522,94.086 372.400 C 94.283 372.278,94.444 372.335,94.444 372.526 C 94.444 372.717,94.944 373.080,95.556 373.333 C 96.167 373.586,96.667 373.905,96.667 374.042 C 96.667 374.179,97.750 374.924,99.074 375.699 C 100.398 376.473,101.574 377.258,101.688 377.442 C 101.802 377.627,102.148 377.778,102.456 377.778 C 102.764 377.778,103.266 378.028,103.571 378.333 C 103.877 378.639,104.431 378.889,104.802 378.889 C 105.173 378.889,105.579 379.156,105.704 379.483 C 105.830 379.810,106.165 379.987,106.450 379.878 C 106.735 379.769,107.263 380.006,107.623 380.404 C 107.984 380.803,108.457 381.070,108.673 380.998 C 108.890 380.926,109.271 381.046,109.521 381.267 C 110.699 382.306,111.045 382.536,111.200 382.380 C 111.347 382.233,113.174 382.965,116.852 384.645 C 118.536 385.414,121.219 386.285,121.923 386.291 C 122.268 386.294,123.138 386.643,123.856 387.066 C 124.573 387.490,125.322 387.737,125.519 387.615 C 125.716 387.493,126.556 387.748,127.385 388.180 C 128.215 388.612,129.152 388.867,129.468 388.746 C 129.784 388.625,130.721 388.871,131.549 389.294 C 132.378 389.716,133.387 389.975,133.793 389.869 C 134.198 389.763,134.802 389.822,135.135 389.999 C 136.203 390.567,139.077 391.089,139.922 390.868 C 140.406 390.742,140.741 390.824,140.741 391.068 C 140.741 391.368,146.603 391.481,162.037 391.481 C 177.471 391.481,183.333 391.368,183.333 391.068 C 183.333 390.820,183.668 390.743,184.167 390.876 C 185.152 391.139,188.889 390.347,188.889 389.876 C 188.889 389.696,189.312 389.656,189.830 389.785 C 190.422 389.934,191.397 389.744,192.462 389.273 C 193.393 388.861,194.301 388.615,194.481 388.726 C 194.660 388.837,195.386 388.653,196.094 388.317 C 196.802 387.981,197.880 387.671,198.489 387.629 C 199.098 387.587,199.909 387.270,200.290 386.924 C 200.672 386.579,201.420 386.296,201.952 386.296 C 202.484 386.296,203.022 386.130,203.148 385.926 C 203.274 385.722,203.632 385.556,203.943 385.556 C 204.255 385.556,205.590 385.056,206.910 384.444 C 208.231 383.833,209.539 383.333,209.819 383.333 C 210.098 383.333,210.418 383.185,210.530 383.004 C 210.642 382.823,211.166 382.566,211.695 382.433 C 212.223 382.301,212.993 381.878,213.406 381.494 C 213.818 381.110,214.356 380.872,214.601 380.966 C 214.846 381.060,215.350 380.802,215.721 380.392 C 216.092 379.982,216.547 379.741,216.732 379.855 C 216.918 379.970,217.330 379.848,217.648 379.583 C 218.282 379.057,219.310 378.434,220.741 377.707 C 221.250 377.449,221.750 377.151,221.852 377.045 C 221.954 376.939,222.845 376.435,223.832 375.926 C 224.819 375.417,226.045 374.616,226.558 374.146 C 227.071 373.677,227.565 373.367,227.656 373.459 C 227.748 373.550,228.213 373.268,228.691 372.831 C 229.981 371.651,230.486 371.285,231.204 371.011 C 231.560 370.875,231.852 370.592,231.852 370.382 C 231.852 370.172,232.026 370.000,232.238 370.000 C 232.624 370.000,233.129 369.644,234.471 368.426 C 234.864 368.069,235.352 367.778,235.556 367.778 C 235.759 367.778,235.926 367.528,235.926 367.222 C 235.926 366.917,236.158 366.667,236.442 366.667 C 236.726 366.667,237.058 366.406,237.180 366.088 C 237.302 365.769,237.571 365.613,237.778 365.741 C 237.984 365.868,238.253 365.712,238.376 365.394 C 238.498 365.075,238.840 364.815,239.136 364.815 C 239.431 364.815,239.582 364.667,239.470 364.486 C 239.359 364.306,239.516 363.952,239.819 363.700 C 240.122 363.449,240.370 363.330,240.370 363.437 C 240.370 363.797,245.865 358.213,246.287 357.425 C 246.516 356.996,246.888 356.760,247.113 356.899 C 247.338 357.038,247.422 356.990,247.301 356.793 C 247.080 356.437,248.555 354.457,249.138 354.327 C 249.307 354.290,249.422 354.053,249.394 353.800 C 249.366 353.548,249.492 353.433,249.674 353.546 C 249.856 353.659,250.120 353.452,250.260 353.087 C 250.400 352.722,250.896 352.070,251.362 351.638 C 251.829 351.206,252.102 350.744,251.969 350.611 C 251.837 350.479,251.923 350.370,252.160 350.370 C 252.398 350.370,252.593 350.138,252.593 349.854 C 252.593 349.571,252.843 349.243,253.148 349.125 C 253.454 349.008,253.704 348.657,253.704 348.345 C 253.704 348.033,253.830 347.778,253.984 347.778 C 254.138 347.778,254.485 347.277,254.756 346.665 C 255.027 346.052,255.423 345.659,255.636 345.790 C 255.855 345.926,255.947 345.806,255.849 345.515 C 255.754 345.232,255.890 344.833,256.151 344.630 C 256.412 344.426,256.677 344.009,256.739 343.704 C 256.801 343.398,257.104 342.898,257.412 342.593 C 258.078 341.932,261.108 336.095,261.119 335.450 C 261.124 335.202,261.454 334.583,261.852 334.074 C 262.250 333.565,262.580 332.787,262.584 332.346 C 262.589 331.904,262.754 331.488,262.952 331.420 C 263.150 331.352,263.364 330.963,263.429 330.556 C 263.493 330.148,263.828 329.253,264.174 328.566 C 264.520 327.879,264.711 327.168,264.598 326.985 C 264.485 326.803,264.749 326.075,265.186 325.369 C 265.678 324.572,265.890 323.802,265.743 323.339 C 265.612 322.928,265.647 322.593,265.820 322.593 C 266.204 322.593,266.874 320.264,267.419 317.037 C 267.642 315.713,268.051 313.796,268.327 312.778 C 269.798 307.358,269.787 287.691,268.310 280.556 C 268.015 279.130,267.508 276.463,267.182 274.630 C 266.857 272.796,266.506 270.838,266.402 270.278 C 266.297 269.718,266.053 269.259,265.859 269.259 C 265.665 269.259,265.604 268.949,265.725 268.570 C 265.845 268.190,265.632 267.149,265.251 266.255 C 264.871 265.361,264.627 264.434,264.709 264.194 C 264.791 263.955,264.509 263.074,264.082 262.237 C 263.655 261.400,263.398 260.565,263.512 260.382 C 263.625 260.198,263.378 259.443,262.963 258.704 C 262.548 257.964,262.314 257.188,262.444 256.978 C 262.574 256.768,262.327 256.119,261.895 255.535 C 261.464 254.952,261.111 254.061,261.111 253.555 C 261.111 253.050,260.944 252.533,260.741 252.407 C 260.537 252.282,260.370 251.924,260.370 251.612 C 260.370 251.301,259.870 249.965,259.259 248.645 C 258.648 247.325,258.143 246.048,258.136 245.807 C 258.130 245.567,257.880 245.047,257.581 244.651 C 257.282 244.256,257.037 243.631,257.037 243.263 C 257.037 242.894,256.870 242.593,256.667 242.593 C 256.463 242.593,256.296 242.343,256.296 242.037 C 256.296 241.731,256.135 241.481,255.938 241.481 C 255.740 241.481,255.661 241.267,255.761 241.006 C 255.862 240.744,255.598 240.158,255.175 239.704 C 254.753 239.251,254.500 238.728,254.614 238.544 C 254.728 238.359,254.598 237.984,254.325 237.711 C 254.052 237.438,253.714 236.758,253.574 236.200 C 253.434 235.642,253.156 235.185,252.956 235.185 C 252.756 235.185,252.593 234.864,252.593 234.471 C 252.593 234.078,252.384 233.529,252.130 233.250 C 251.654 232.730,250.783 231.239,249.526 228.796 C 249.133 228.032,248.676 227.407,248.510 227.407 C 248.344 227.407,247.936 226.589,247.603 225.588 C 247.271 224.587,246.758 223.676,246.462 223.562 C 246.167 223.449,245.926 223.141,245.926 222.878 C 245.926 222.615,245.503 221.943,244.985 221.385 C 244.468 220.827,244.176 220.368,244.337 220.365 C 244.498 220.362,244.457 220.237,244.247 220.087 C 244.037 219.937,243.335 218.981,242.689 217.963 C 242.042 216.944,241.039 215.595,240.460 214.965 C 239.880 214.335,239.466 213.640,239.538 213.422 C 239.611 213.204,239.315 212.913,238.881 212.775 C 238.447 212.638,238.185 212.432,238.299 212.319 C 238.412 212.205,238.205 211.845,237.838 211.519 C 237.471 211.193,237.059 210.624,236.921 210.254 C 236.784 209.885,236.523 209.675,236.341 209.787 C 236.159 209.900,235.914 209.626,235.798 209.179 C 235.681 208.732,235.470 208.481,235.329 208.622 C 235.188 208.762,234.864 208.592,234.609 208.243 C 233.808 207.147,233.593 210.432,233.776 220.961 C 233.870 226.329,233.818 230.768,233.662 230.824 C 233.505 230.880,233.326 232.967,233.263 235.461 C 233.200 237.956,233.042 239.997,232.913 239.998 C 232.665 240.000,231.757 245.613,231.916 246.161 C 231.967 246.337,231.828 246.815,231.608 247.222 C 231.387 247.630,231.090 248.761,230.948 249.736 C 230.807 250.712,230.452 252.081,230.160 252.780 C 229.868 253.479,229.630 254.452,229.630 254.943 C 229.630 255.434,229.380 256.043,229.074 256.296 C 228.769 256.550,228.519 257.320,228.519 258.008 C 228.519 258.696,228.352 259.259,228.148 259.259 C 227.944 259.259,227.778 259.509,227.778 259.815 C 227.778 260.120,227.600 260.370,227.382 260.370 C 227.161 260.370,227.086 260.683,227.212 261.080 C 227.336 261.470,227.268 261.894,227.062 262.022 C 226.855 262.149,226.230 263.247,225.673 264.460 C 225.116 265.674,224.529 266.667,224.367 266.667 C 224.206 266.667,224.074 267.010,224.074 267.429 C 224.074 267.849,223.907 268.089,223.704 267.963 C 223.500 267.837,223.333 268.079,223.333 268.500 C 223.333 268.922,223.000 269.552,222.593 269.901 C 222.185 270.250,221.852 270.730,221.852 270.969 C 221.852 271.207,221.602 271.498,221.296 271.615 C 220.991 271.733,220.741 272.066,220.741 272.356 C 220.741 272.646,220.467 272.989,220.132 273.117 C 219.797 273.246,219.609 273.436,219.713 273.540 C 220.040 273.867,213.792 280.454,211.693 281.996 C 211.169 282.381,210.741 282.918,210.741 283.188 C 210.741 283.495,210.509 283.591,210.124 283.444 C 209.710 283.285,209.596 283.349,209.776 283.641 C 209.937 283.901,209.813 284.074,209.466 284.074 C 209.149 284.074,208.885 284.199,208.881 284.352 C 208.876 284.505,208.127 285.130,207.215 285.741 C 206.303 286.352,205.557 286.987,205.556 287.151 C 205.556 287.316,205.389 287.348,205.185 287.222 C 204.981 287.096,204.815 287.159,204.815 287.361 C 204.815 287.563,204.440 287.845,203.981 287.988 C 203.523 288.131,203.065 288.351,202.963 288.476 C 202.665 288.842,201.351 289.633,200.648 289.869 C 200.292 289.988,200.000 290.243,200.000 290.435 C 200.000 290.627,199.833 290.681,199.630 290.556 C 199.426 290.430,199.259 290.503,199.259 290.719 C 199.259 290.935,199.030 291.111,198.749 291.111 C 198.468 291.111,198.033 291.359,197.781 291.663 C 197.529 291.966,197.201 292.138,197.051 292.046 C 196.901 291.953,196.458 292.176,196.067 292.541 C 195.675 292.906,195.184 293.148,194.975 293.078 C 194.767 293.009,194.243 293.281,193.811 293.683 C 193.379 294.085,192.595 294.523,192.069 294.655 C 191.542 294.787,191.111 295.044,191.111 295.225 C 191.111 295.407,190.726 295.556,190.256 295.556 C 189.786 295.556,189.077 295.800,188.682 296.099 C 188.286 296.398,187.621 296.648,187.204 296.655 C 186.786 296.661,186.257 296.854,186.029 297.082 C 185.555 297.556,177.472 299.247,175.648 299.254 C 174.986 299.257,174.444 299.426,174.444 299.630 C 174.444 300.090,168.274 300.133,167.991 299.675 C 167.880 299.496,166.745 299.236,165.469 299.097 C 164.192 298.959,162.648 298.791,162.037 298.725 C 161.426 298.658,160.457 298.418,159.883 298.191 C 159.310 297.964,158.560 297.772,158.217 297.766 C 157.873 297.760,157.269 297.510,156.874 297.210 C 156.478 296.911,155.645 296.661,155.022 296.655 C 154.399 296.648,153.565 296.398,153.170 296.099 C 152.775 295.800,152.101 295.556,151.674 295.556 C 151.247 295.556,150.244 295.222,149.444 294.815 C 148.645 294.407,147.777 294.074,147.514 294.074 C 147.252 294.074,147.037 293.919,147.037 293.729 C 147.037 293.539,146.662 293.269,146.204 293.129 C 145.745 292.990,145.061 292.603,144.683 292.271 C 144.305 291.939,143.889 291.684,143.757 291.705 C 142.755 291.868,136.343 286.515,135.809 285.069 C 135.672 284.700,135.393 284.501,135.188 284.628 C 134.983 284.755,134.815 284.515,134.815 284.096 C 134.815 283.665,134.573 283.333,134.259 283.333 C 133.954 283.333,133.704 283.083,133.704 282.778 C 133.704 282.472,133.537 282.222,133.333 282.222 C 133.130 282.222,132.963 282.004,132.963 281.737 C 132.963 281.469,132.640 280.904,132.245 280.480 C 131.849 280.055,131.614 279.621,131.721 279.514 C 131.828 279.407,131.555 279.126,131.114 278.890 C 130.673 278.655,130.395 278.249,130.494 277.989 C 130.594 277.729,130.360 277.246,129.975 276.917 C 129.590 276.587,129.360 276.093,129.465 275.820 C 129.570 275.547,129.317 275.017,128.902 274.641 C 128.477 274.257,128.148 273.495,128.148 272.894 C 128.148 272.289,127.908 271.737,127.593 271.615 C 127.255 271.486,127.037 270.925,127.037 270.185 C 127.037 269.451,126.819 268.884,126.488 268.757 C 126.173 268.637,126.032 268.301,126.159 267.973 C 126.280 267.657,126.101 266.549,125.761 265.510 C 125.421 264.472,125.223 263.542,125.321 263.444 C 125.419 263.346,125.262 262.594,124.972 261.772 C 124.682 260.950,124.444 259.632,124.444 258.842 C 124.444 258.053,124.318 257.407,124.164 257.407 C 124.010 257.407,123.872 252.574,123.857 246.667 C 123.841 240.759,123.967 235.926,124.137 235.926 C 124.306 235.926,124.444 235.383,124.444 234.720 C 124.444 234.056,124.621 232.931,124.838 232.220 C 125.054 231.508,125.295 230.509,125.374 230.000 C 125.453 229.491,125.688 228.166,125.896 227.057 C 126.104 225.948,126.204 224.970,126.118 224.883 C 126.032 224.797,126.203 224.485,126.499 224.189 C 126.795 223.893,127.037 223.182,127.037 222.608 C 127.037 222.035,127.286 221.089,127.590 220.505 C 127.895 219.922,128.145 219.091,128.146 218.658 C 128.147 218.226,128.482 217.117,128.891 216.193 C 129.299 215.270,129.540 214.271,129.425 213.973 C 129.311 213.674,129.564 212.813,129.989 212.057 C 130.413 211.302,130.722 210.488,130.675 210.249 C 130.628 210.010,130.881 209.268,131.236 208.600 C 131.591 207.932,131.771 207.205,131.634 206.985 C 131.498 206.764,131.536 206.477,131.719 206.347 C 132.080 206.091,133.062 204.120,133.128 203.519 C 133.268 202.250,133.820 200.741,134.143 200.741 C 134.352 200.741,134.428 200.491,134.311 200.185 C 134.193 199.880,134.259 199.630,134.456 199.630 C 134.653 199.630,134.815 199.317,134.815 198.934 C 134.815 198.552,135.065 198.031,135.370 197.778 C 135.676 197.524,135.926 196.915,135.926 196.425 C 135.926 195.934,136.176 195.436,136.481 195.319 C 136.787 195.202,137.037 194.713,137.037 194.233 C 137.037 193.728,137.361 193.186,137.807 192.948 C 138.230 192.721,138.491 192.314,138.387 192.043 C 138.283 191.773,138.516 191.263,138.905 190.911 C 139.294 190.559,139.535 190.146,139.440 189.992 C 139.345 189.839,139.518 189.506,139.823 189.252 C 140.129 188.999,140.706 188.105,141.106 187.266 C 141.912 185.575,142.544 184.546,143.241 183.785 C 143.495 183.508,143.704 183.060,143.704 182.791 C 143.704 182.522,143.954 182.206,144.259 182.088 C 144.565 181.971,144.815 181.537,144.815 181.123 C 144.815 180.709,144.978 180.370,145.178 180.370 C 145.378 180.370,145.643 179.966,145.767 179.471 C 145.891 178.977,146.228 178.482,146.515 178.372 C 146.802 178.262,147.037 177.924,147.037 177.623 C 147.037 177.321,147.245 176.941,147.500 176.778 C 147.755 176.615,148.288 175.898,148.685 175.185 C 149.082 174.472,149.544 173.722,149.711 173.519 C 149.877 173.315,150.344 172.748,150.748 172.258 C 151.151 171.769,151.481 171.161,151.481 170.909 C 151.481 170.656,151.731 170.354,152.037 170.236 C 152.343 170.119,152.593 169.768,152.593 169.456 C 152.593 169.144,152.843 168.889,153.148 168.889 C 153.454 168.889,153.704 168.639,153.704 168.333 C 153.704 168.028,153.870 167.778,154.074 167.778 C 154.278 167.778,154.444 167.569,154.444 167.315 C 154.444 167.060,155.069 166.158,155.833 165.311 C 156.597 164.464,158.056 162.822,159.074 161.664 C 160.093 160.505,161.343 159.100,161.852 158.541 C 162.361 157.982,163.064 157.207,163.414 156.818 C 163.763 156.429,164.464 155.707,164.969 155.213 C 165.475 154.718,165.804 154.177,165.700 154.009 C 165.597 153.841,165.742 153.704,166.023 153.704 C 166.304 153.704,167.022 153.081,167.619 152.321 C 168.593 151.079,169.802 149.838,171.183 148.663 C 171.449 148.436,172.872 146.978,174.345 145.422 C 175.817 143.866,177.192 142.593,177.400 142.593 C 177.608 142.593,177.785 142.384,177.795 142.130 C 177.804 141.875,178.237 141.333,178.757 140.926 C 180.339 139.685,182.593 137.371,182.593 136.986 C 182.593 136.786,182.744 136.717,182.929 136.831 C 183.114 136.945,183.687 136.539,184.202 135.927 C 184.716 135.315,185.245 134.815,185.377 134.815 C 185.509 134.815,186.184 134.231,186.876 133.519 C 187.569 132.806,188.315 132.222,188.534 132.222 C 188.753 132.222,188.830 132.056,188.704 131.852 C 188.578 131.648,188.740 131.481,189.064 131.481 C 189.388 131.481,189.749 131.231,189.866 130.926 C 189.983 130.620,190.252 130.370,190.462 130.370 C 190.673 130.370,191.322 129.872,191.904 129.263 C 192.487 128.653,192.969 128.278,192.975 128.429 C 192.982 128.580,193.295 128.336,193.670 127.886 C 194.045 127.436,194.443 127.159,194.554 127.270 C 194.664 127.380,194.941 127.123,195.168 126.698 C 195.396 126.274,195.826 125.926,196.124 125.926 C 196.423 125.926,196.667 125.775,196.667 125.592 C 196.667 125.408,197.583 124.649,198.704 123.905 C 199.824 123.161,200.741 122.395,200.741 122.202 C 200.741 122.010,200.906 121.852,201.107 121.852 C 201.471 121.852,202.483 121.114,203.729 119.938 C 204.088 119.599,204.453 119.392,204.539 119.478 C 204.626 119.564,205.298 119.050,206.033 118.336 C 206.769 117.621,207.521 117.037,207.705 117.037 C 207.889 117.037,208.490 116.620,209.039 116.111 C 209.589 115.602,210.196 115.185,210.389 115.185 C 210.583 115.185,210.741 115.039,210.741 114.860 C 210.741 114.681,211.241 114.327,211.852 114.074 C 212.463 113.821,212.963 113.467,212.963 113.288 C 212.963 113.109,213.190 112.963,213.467 112.963 C 213.744 112.963,214.591 112.378,215.348 111.663 C 216.106 110.948,216.880 110.458,217.067 110.574 C 217.254 110.690,217.407 110.639,217.407 110.460 C 217.407 110.091,222.074 107.037,222.638 107.037 C 222.841 107.037,222.915 106.888,222.802 106.706 C 222.690 106.524,222.975 106.281,223.436 106.165 C 223.897 106.049,224.635 105.618,225.076 105.208 C 225.517 104.797,226.088 104.415,226.345 104.360 C 226.602 104.305,227.171 103.887,227.610 103.432 C 228.048 102.977,228.512 102.709,228.639 102.837 C 228.767 102.965,228.977 102.795,229.105 102.460 C 229.233 102.126,229.614 101.852,229.951 101.852 C 230.287 101.852,230.771 101.519,231.025 101.111 C 231.280 100.704,231.736 100.370,232.040 100.370 C 232.344 100.370,232.593 100.204,232.593 100.000 C 232.593 99.796,232.889 99.630,233.251 99.630 C 233.613 99.630,234.443 99.142,235.096 98.546 C 235.749 97.949,236.653 97.344,237.106 97.200 C 237.558 97.057,238.139 96.753,238.396 96.525 C 239.576 95.479,239.864 95.325,240.337 95.483 C 240.617 95.576,240.739 95.482,240.609 95.272 C 240.406 94.943,241.149 94.388,241.923 94.291 C 242.064 94.274,242.533 93.881,242.964 93.418 C 243.395 92.955,243.906 92.674,244.099 92.793 C 244.292 92.912,244.544 92.764,244.659 92.464 C 244.774 92.164,245.273 91.817,245.768 91.693 C 246.262 91.569,246.667 91.304,246.667 91.104 C 246.667 90.904,246.992 90.741,247.389 90.741 C 247.786 90.741,248.245 90.532,248.408 90.278 C 248.570 90.023,249.334 89.523,250.104 89.167 C 250.874 88.811,251.600 88.270,251.717 87.966 C 251.834 87.661,252.073 87.500,252.248 87.608 C 252.422 87.716,252.874 87.497,253.250 87.120 C 253.627 86.743,254.133 86.501,254.375 86.582 C 254.617 86.662,254.815 86.559,254.815 86.352 C 254.815 86.145,255.190 85.862,255.648 85.723 C 256.106 85.584,256.856 85.127,257.315 84.708 C 257.773 84.288,258.148 84.072,258.148 84.228 C 258.148 84.383,258.662 84.078,259.291 83.549 C 259.919 83.020,260.586 82.682,260.772 82.797 C 260.959 82.912,261.111 82.830,261.111 82.614 C 261.111 82.399,261.349 82.222,261.640 82.222 C 261.931 82.222,262.392 82.014,262.664 81.759 C 262.937 81.505,263.824 80.965,264.635 80.561 C 265.447 80.156,266.378 79.534,266.704 79.179 C 267.031 78.823,267.406 78.641,267.539 78.774 C 267.672 78.907,268.155 78.664,268.613 78.234 C 269.070 77.804,269.611 77.444,269.815 77.433 C 270.019 77.422,270.435 77.201,270.741 76.941 C 271.046 76.681,271.592 76.526,271.954 76.596 C 272.340 76.672,272.570 76.530,272.510 76.253 C 272.453 75.994,272.824 75.689,273.333 75.576 C 273.843 75.463,274.926 74.936,275.741 74.406 C 276.556 73.876,277.597 73.323,278.056 73.177 C 278.514 73.032,278.889 72.758,278.889 72.568 C 278.889 72.378,279.062 72.222,279.273 72.222 C 279.949 72.222,287.407 68.449,287.407 68.107 C 287.407 67.926,287.709 67.778,288.077 67.778 C 288.446 67.778,289.071 67.533,289.466 67.234 C 289.862 66.935,290.465 66.685,290.807 66.678 C 291.149 66.672,291.649 66.457,291.918 66.201 C 292.453 65.692,296.719 63.586,298.056 63.171 C 298.514 63.029,298.889 62.748,298.889 62.546 C 298.889 62.344,299.057 62.282,299.262 62.409 C 299.467 62.536,300.111 62.300,300.692 61.886 C 301.274 61.472,301.848 61.230,301.967 61.349 C 302.086 61.469,302.628 61.216,303.172 60.788 C 303.716 60.360,304.306 60.100,304.483 60.209 C 304.660 60.319,305.172 60.066,305.621 59.649 C 306.069 59.231,306.801 58.889,307.247 58.889 C 307.693 58.889,308.265 58.639,308.519 58.333 C 308.772 58.028,309.355 57.778,309.815 57.778 C 310.274 57.778,310.858 57.528,311.111 57.222 C 311.365 56.917,311.873 56.667,312.241 56.667 C 312.609 56.667,313.130 56.455,313.399 56.197 C 313.669 55.939,314.829 55.436,315.978 55.080 C 317.128 54.723,318.271 54.187,318.520 53.887 C 318.769 53.587,319.128 53.437,319.318 53.555 C 319.507 53.672,320.113 53.468,320.664 53.101 C 321.216 52.734,321.958 52.480,322.315 52.537 C 322.671 52.593,322.963 52.462,322.963 52.246 C 322.963 52.029,323.213 51.852,323.519 51.852 C 323.824 51.852,324.074 51.667,324.074 51.442 C 324.074 51.216,324.339 51.133,324.663 51.258 C 324.989 51.383,325.671 51.153,326.194 50.742 C 326.713 50.334,327.416 50.000,327.757 50.000 C 328.098 50.000,328.700 49.755,329.096 49.456 C 329.491 49.157,330.148 48.902,330.556 48.889 C 330.963 48.876,331.620 48.621,332.015 48.322 C 332.411 48.022,332.954 47.778,333.223 47.778 C 333.492 47.778,334.418 47.458,335.282 47.068 C 339.465 45.176,340.605 44.709,341.198 44.642 C 341.552 44.602,342.149 44.291,342.525 43.950 C 342.901 43.610,343.311 43.434,343.437 43.560 C 343.562 43.685,344.231 43.438,344.924 43.010 C 345.616 42.582,346.291 42.340,346.422 42.472 C 346.554 42.604,346.955 42.456,347.313 42.143 C 347.670 41.831,348.588 41.463,349.352 41.326 C 350.116 41.190,350.741 40.918,350.741 40.724 C 350.741 40.529,351.000 40.370,351.317 40.370 C 351.633 40.370,352.675 40.028,353.631 39.609 C 354.588 39.191,355.704 38.708,356.111 38.536 C 356.519 38.364,357.435 37.976,358.148 37.673 C 358.861 37.370,360.069 36.903,360.833 36.635 C 361.597 36.367,362.222 36.020,362.222 35.863 C 362.222 35.707,362.468 35.673,362.768 35.788 C 363.069 35.904,363.580 35.732,363.906 35.406 C 364.231 35.081,364.890 34.815,365.370 34.815 C 365.851 34.815,366.493 34.565,366.799 34.259 C 367.104 33.954,367.668 33.704,368.051 33.704 C 368.434 33.704,369.071 33.459,369.466 33.160 C 369.862 32.861,370.548 32.611,370.992 32.604 C 371.436 32.598,372.049 32.343,372.354 32.037 C 372.660 31.731,373.130 31.476,373.399 31.469 C 373.669 31.462,374.556 31.134,375.370 30.741 C 376.185 30.347,377.060 30.019,377.315 30.013 C 377.569 30.006,377.778 29.870,377.778 29.710 C 377.778 29.551,378.205 29.385,378.728 29.342 C 379.251 29.299,379.922 29.020,380.220 28.722 C 380.518 28.424,381.016 28.277,381.326 28.396 C 381.642 28.517,382.276 28.249,382.769 27.786 C 383.253 27.331,383.829 27.071,384.049 27.207 C 384.269 27.343,384.933 27.110,385.524 26.689 C 386.116 26.268,386.865 26.025,387.189 26.149 C 387.577 26.298,387.778 26.172,387.778 25.780 C 387.778 25.053,387.153 25.039,385.926 25.741 " stroke="none" fill="#fc0404" fill-rule="evenodd"></path><path id="path2" d="M262.778 22.286 C 257.898 22.811,250.968 24.325,247.407 25.644 C 247.102 25.757,245.769 26.228,244.444 26.690 C 241.083 27.863,236.283 29.976,234.444 31.091 C 234.139 31.276,233.639 31.525,233.333 31.644 C 233.028 31.763,232.278 32.189,231.667 32.591 C 231.056 32.993,230.186 33.485,229.735 33.684 C 228.373 34.285,221.293 39.048,220.560 39.858 C 220.354 40.085,219.255 40.945,218.118 41.768 C 216.981 42.591,215.252 44.030,214.275 44.966 C 213.299 45.901,212.354 46.667,212.176 46.667 C 211.998 46.667,211.852 46.917,211.852 47.222 C 211.852 47.528,211.602 47.778,211.296 47.778 C 210.991 47.778,210.741 48.028,210.741 48.333 C 210.741 48.639,210.491 48.889,210.185 48.889 C 209.880 48.889,209.630 49.128,209.630 49.419 C 209.630 49.711,209.296 50.056,208.889 50.185 C 208.481 50.314,208.148 50.541,208.148 50.688 C 208.148 50.835,207.471 51.699,206.644 52.607 C 205.817 53.516,204.532 55.051,203.790 56.019 C 203.048 56.986,202.308 57.778,202.146 57.778 C 201.984 57.778,201.852 58.010,201.852 58.294 C 201.852 58.577,201.602 58.906,201.296 59.023 C 200.991 59.140,200.741 59.477,200.741 59.772 C 200.741 60.067,200.616 60.364,200.463 60.432 C 200.031 60.624,198.148 63.240,198.148 63.648 C 198.148 63.848,198.011 64.068,197.843 64.136 C 197.406 64.313,192.963 71.646,192.963 72.190 C 192.963 72.441,192.713 72.896,192.407 73.201 C 192.102 73.507,191.852 74.058,191.852 74.426 C 191.852 74.793,191.602 75.302,191.296 75.556 C 190.991 75.809,190.741 76.172,190.741 76.362 C 190.741 76.552,190.398 77.490,189.980 78.446 C 189.561 79.403,189.042 80.602,188.825 81.111 C 188.609 81.620,188.273 82.345,188.079 82.721 C 187.248 84.334,189.137 83.659,193.158 80.906 C 194.481 80.000,195.735 79.259,195.945 79.259 C 196.155 79.259,196.685 78.926,197.122 78.519 C 197.560 78.111,198.205 77.778,198.557 77.778 C 198.910 77.778,199.253 77.640,199.321 77.471 C 199.434 77.190,204.623 74.607,209.630 72.340 C 210.750 71.832,212.139 71.181,212.715 70.894 C 213.292 70.606,214.042 70.365,214.382 70.359 C 214.722 70.352,215.324 70.102,215.719 69.803 C 216.114 69.504,216.786 69.259,217.211 69.259 C 217.636 69.259,218.312 69.040,218.714 68.772 C 219.116 68.505,220.702 67.895,222.239 67.418 C 225.249 66.483,224.978 66.760,228.259 61.296 C 228.504 60.889,228.912 60.422,229.167 60.259 C 229.421 60.096,229.630 59.807,229.630 59.615 C 229.630 59.269,230.399 58.232,231.508 57.084 C 231.828 56.753,232.850 55.478,233.779 54.252 C 235.175 52.409,242.871 44.465,244.536 43.148 C 244.794 42.944,246.170 41.842,247.595 40.699 C 253.812 35.711,257.569 33.310,265.724 29.114 C 267.548 28.175,269.306 27.407,269.631 27.407 C 269.956 27.407,270.381 27.252,270.574 27.063 C 270.768 26.874,271.676 26.449,272.593 26.120 C 275.767 24.980,279.449 23.777,280.463 23.549 C 285.269 22.466,270.740 21.428,262.778 22.286 M285.370 98.219 C 283.130 98.395,280.042 98.785,278.510 99.084 C 276.978 99.384,275.311 99.629,274.806 99.628 C 274.302 99.627,273.139 99.862,272.222 100.151 C 271.306 100.439,269.806 100.864,268.889 101.095 C 265.245 102.011,263.094 102.657,261.981 103.168 C 261.339 103.463,260.615 103.704,260.372 103.704 C 260.128 103.704,259.487 103.941,258.946 104.231 C 258.405 104.522,257.005 105.136,255.833 105.596 C 254.662 106.056,253.704 106.569,253.704 106.735 C 253.704 106.901,253.393 107.037,253.013 107.037 C 252.633 107.037,251.925 107.347,251.439 107.727 C 250.953 108.106,250.181 108.534,249.722 108.678 C 249.264 108.821,248.889 109.094,248.889 109.284 C 248.889 109.474,248.719 109.630,248.511 109.630 C 248.061 109.630,245.054 111.545,244.877 111.944 C 244.809 112.097,244.589 112.222,244.389 112.222 C 243.965 112.222,241.732 113.847,240.316 115.185 C 239.778 115.694,238.736 116.666,238.002 117.345 C 236.097 119.105,237.124 119.579,239.515 118.044 C 239.757 117.889,241.757 117.179,243.959 116.467 C 246.161 115.755,248.296 115.020,248.704 114.834 C 249.111 114.647,249.944 114.423,250.556 114.336 C 251.167 114.248,252.417 113.994,253.333 113.772 C 263.098 111.400,275.949 110.493,283.855 111.616 C 286.114 111.937,288.630 112.268,289.444 112.350 C 291.390 112.546,295.084 113.291,296.481 113.769 C 297.093 113.978,298.009 114.233,298.519 114.336 C 300.217 114.678,307.955 117.524,308.548 118.025 C 308.869 118.296,309.391 118.519,309.706 118.519 C 310.022 118.519,310.487 118.769,310.741 119.074 C 310.994 119.380,311.489 119.630,311.840 119.630 C 312.191 119.630,312.779 119.963,313.148 120.370 C 313.517 120.778,313.966 121.111,314.147 121.111 C 314.328 121.111,314.677 121.275,314.923 121.475 C 315.169 121.674,316.673 122.852,318.265 124.091 C 321.581 126.671,325.926 131.015,325.926 131.749 C 325.926 133.104,327.704 132.564,331.231 130.137 C 334.355 127.989,337.407 124.844,337.407 123.774 C 337.407 123.566,337.548 123.340,337.720 123.272 C 338.249 123.063,339.630 117.945,339.630 116.193 C 339.630 113.069,337.454 109.649,334.608 108.298 C 333.907 107.966,333.333 107.546,333.333 107.365 C 333.333 107.185,333.020 107.037,332.638 107.037 C 332.255 107.037,331.735 106.787,331.481 106.481 C 331.228 106.176,330.707 105.926,330.325 105.926 C 329.943 105.926,329.630 105.762,329.630 105.563 C 329.630 105.363,329.176 105.086,328.622 104.946 C 328.068 104.807,327.110 104.400,326.492 104.042 C 325.092 103.229,317.663 100.741,316.637 100.741 C 316.219 100.741,315.513 100.541,315.068 100.296 C 314.623 100.052,313.426 99.745,312.407 99.614 C 311.389 99.484,309.556 99.191,308.333 98.963 C 302.442 97.864,293.541 97.576,285.370 98.219 M223.988 141.750 C 224.654 141.832,225.654 141.831,226.210 141.746 C 226.767 141.662,226.222 141.594,225.000 141.596 C 223.778 141.598,223.322 141.667,223.988 141.750 M237.321 141.750 C 237.987 141.832,238.987 141.831,239.544 141.746 C 240.100 141.662,239.556 141.594,238.333 141.596 C 237.111 141.598,236.656 141.667,237.321 141.750 " stroke="none" fill="#9c9c9c" fill-rule="evenodd"></path><path id="path3" d="M222.222 14.675 C 219.065 14.948,215.398 15.425,214.074 15.735 C 212.750 16.045,211.219 16.298,210.672 16.297 C 210.125 16.297,209.209 16.475,208.635 16.694 C 208.062 16.913,207.009 17.164,206.296 17.253 C 205.583 17.341,204.250 17.652,203.333 17.943 C 195.298 20.493,190.870 21.994,190.574 22.267 C 190.381 22.446,189.859 22.593,189.416 22.593 C 188.972 22.593,188.402 22.843,188.148 23.148 C 187.895 23.454,187.311 23.704,186.852 23.704 C 186.392 23.704,185.818 23.943,185.575 24.235 C 185.333 24.528,184.657 24.872,184.074 25.000 C 183.491 25.128,182.816 25.472,182.573 25.765 C 182.330 26.057,181.839 26.296,181.481 26.296 C 181.124 26.296,180.621 26.550,180.363 26.861 C 180.105 27.171,179.820 27.351,179.729 27.260 C 179.638 27.169,178.796 27.582,177.858 28.177 C 176.919 28.772,175.934 29.259,175.668 29.259 C 175.403 29.259,175.185 29.386,175.185 29.542 C 175.185 29.826,174.378 30.318,172.500 31.178 C 171.940 31.434,171.481 31.772,171.481 31.928 C 171.481 32.084,170.913 32.450,170.218 32.740 C 169.523 33.031,168.641 33.581,168.260 33.963 C 167.878 34.344,166.905 35.060,166.098 35.552 C 165.290 36.045,164.412 36.747,164.146 37.113 C 163.879 37.478,163.421 37.778,163.127 37.778 C 162.833 37.778,162.593 37.912,162.593 38.077 C 162.593 38.242,161.917 38.867,161.091 39.466 C 158.559 41.304,150.000 49.253,150.000 49.767 C 150.000 49.879,149.167 50.817,148.148 51.852 C 147.130 52.887,146.296 53.863,146.296 54.022 C 146.296 54.181,145.921 54.663,145.463 55.093 C 144.295 56.189,143.704 56.948,143.704 57.352 C 143.704 57.543,143.454 57.794,143.148 57.912 C 142.843 58.029,142.593 58.362,142.593 58.652 C 142.593 58.943,142.340 59.277,142.031 59.395 C 141.723 59.514,141.308 59.990,141.110 60.453 C 140.912 60.917,140.009 62.296,139.104 63.519 C 138.198 64.741,137.446 65.949,137.432 66.204 C 137.419 66.458,137.260 66.667,137.079 66.667 C 136.899 66.667,136.474 67.250,136.136 67.963 C 135.798 68.676,135.362 69.259,135.168 69.259 C 134.974 69.259,134.815 69.593,134.815 70.000 C 134.815 70.407,134.666 70.741,134.485 70.741 C 134.303 70.741,134.040 71.197,133.900 71.756 C 133.760 72.314,133.524 72.855,133.375 72.959 C 133.227 73.063,132.452 74.523,131.653 76.204 C 130.854 77.884,130.072 79.259,129.915 79.259 C 129.758 79.259,129.630 79.557,129.630 79.922 C 129.630 80.286,129.296 81.238,128.889 82.037 C 128.481 82.836,128.148 83.705,128.148 83.967 C 128.148 84.230,127.981 84.444,127.778 84.444 C 127.574 84.444,127.407 84.824,127.407 85.288 C 127.407 85.752,127.179 86.460,126.899 86.862 C 126.620 87.264,126.267 88.176,126.116 88.889 C 125.964 89.602,125.685 90.379,125.494 90.616 C 125.304 90.853,125.063 91.520,124.958 92.098 C 124.854 92.675,124.472 94.065,124.108 95.185 C 123.745 96.306,123.082 98.889,122.635 100.926 C 122.188 102.963,121.579 105.585,121.282 106.754 C 120.984 107.922,120.737 109.589,120.733 110.457 C 120.729 111.326,120.485 113.370,120.191 115.000 C 119.593 118.307,119.405 132.593,119.959 132.593 C 120.139 132.593,122.026 130.884,124.151 128.796 C 126.276 126.708,128.815 124.333,129.793 123.519 C 130.771 122.704,132.121 121.495,132.792 120.833 C 133.463 120.171,134.115 119.630,134.241 119.630 C 134.367 119.630,134.926 119.171,135.484 118.611 C 136.651 117.440,145.667 110.624,148.148 109.036 C 149.065 108.450,149.898 107.878,150.000 107.766 C 150.102 107.653,151.435 106.781,152.963 105.828 C 154.491 104.875,155.907 103.964,156.111 103.804 C 156.315 103.644,156.940 103.310,157.500 103.061 C 158.060 102.812,158.519 102.438,158.519 102.230 C 158.519 102.022,158.819 101.852,159.185 101.852 C 159.552 101.852,160.038 101.666,160.265 101.439 C 160.804 100.899,161.729 100.387,165.657 98.453 C 169.115 96.749,170.000 95.473,170.000 92.186 C 170.000 91.628,170.333 90.395,170.741 89.444 C 171.148 88.494,171.481 87.262,171.481 86.707 C 171.481 86.151,171.726 85.374,172.025 84.978 C 172.324 84.583,172.574 83.954,172.581 83.581 C 172.592 82.929,174.140 78.014,174.818 76.481 C 174.998 76.074,175.520 74.907,175.980 73.889 C 176.439 72.870,176.838 71.954,176.866 71.852 C 176.994 71.390,178.944 67.145,179.333 66.481 C 179.572 66.074,180.293 64.737,180.936 63.511 C 182.389 60.741,184.073 58.036,184.531 57.736 C 184.722 57.612,184.822 57.409,184.754 57.285 C 184.686 57.162,184.920 56.722,185.274 56.308 C 185.629 55.894,185.795 55.550,185.645 55.544 C 185.494 55.537,185.638 55.328,185.964 55.080 C 186.291 54.831,186.919 53.919,187.361 53.054 C 187.802 52.189,188.326 51.481,188.526 51.481 C 188.726 51.481,188.889 51.233,188.889 50.929 C 188.889 50.625,189.222 50.168,189.630 49.914 C 190.037 49.660,190.372 49.283,190.374 49.078 C 190.376 48.872,191.121 47.870,192.030 46.852 C 192.940 45.833,193.688 44.880,193.694 44.733 C 193.699 44.586,195.302 42.836,197.256 40.844 C 199.209 38.852,200.917 37.056,201.052 36.852 C 201.338 36.418,204.724 33.344,206.967 31.481 C 207.826 30.769,209.068 29.712,209.727 29.135 C 210.387 28.557,211.384 27.844,211.944 27.551 C 212.505 27.258,212.963 26.856,212.963 26.657 C 212.963 26.459,213.205 26.296,213.500 26.296 C 213.796 26.296,214.171 26.084,214.333 25.824 C 214.743 25.173,217.428 23.412,219.537 22.412 C 220.199 22.099,220.741 21.697,220.741 21.520 C 220.741 21.342,221.032 21.102,221.389 20.985 C 221.745 20.868,222.704 20.348,223.519 19.830 C 224.333 19.312,225.458 18.705,226.019 18.482 C 226.579 18.258,227.037 17.925,227.037 17.742 C 227.037 17.558,227.329 17.404,227.685 17.399 C 228.042 17.395,228.750 17.065,229.259 16.667 C 229.769 16.268,230.463 15.939,230.803 15.934 C 231.541 15.924,233.698 14.747,233.701 14.352 C 233.705 13.960,228.942 14.094,222.222 14.675 M250.741 127.837 C 249.620 128.023,247.287 128.320,245.556 128.498 C 243.824 128.676,241.407 129.076,240.185 129.387 C 238.963 129.697,237.380 130.018,236.667 130.099 C 235.954 130.181,234.943 130.426,234.421 130.644 C 233.900 130.862,232.983 131.094,232.384 131.161 C 231.786 131.228,230.750 131.577,230.081 131.938 C 229.413 132.298,228.487 132.593,228.022 132.593 C 227.558 132.593,226.855 132.837,226.460 133.136 C 226.064 133.435,225.515 133.685,225.238 133.692 C 224.962 133.698,223.712 134.186,222.460 134.776 C 218.480 136.653,216.718 137.407,216.317 137.407 C 216.102 137.407,215.926 137.584,215.926 137.800 C 215.926 138.015,215.759 138.089,215.556 137.963 C 215.352 137.837,215.185 137.883,215.185 138.066 C 215.185 138.248,214.253 138.869,213.113 139.446 C 211.973 140.023,210.961 140.700,210.865 140.952 C 210.768 141.203,210.409 141.506,210.067 141.626 C 209.725 141.745,208.944 142.177,208.333 142.584 C 207.722 142.992,207.014 143.428,206.759 143.554 C 205.505 144.174,206.306 144.821,207.638 144.264 C 208.376 143.956,209.521 143.704,210.184 143.704 C 210.846 143.704,212.097 143.454,212.963 143.148 C 213.829 142.843,215.308 142.593,216.250 142.593 C 217.192 142.592,219.269 142.342,220.866 142.037 C 224.853 141.274,238.261 141.274,242.593 142.037 C 244.324 142.342,246.324 142.590,247.037 142.587 C 248.245 142.583,251.641 143.203,255.556 144.142 C 256.472 144.362,257.889 144.674,258.704 144.835 C 259.519 144.997,261.019 145.401,262.037 145.734 C 263.056 146.067,265.014 146.691,266.389 147.121 C 267.764 147.551,268.889 148.051,268.889 148.233 C 268.889 148.414,269.038 148.470,269.221 148.357 C 269.403 148.244,270.028 148.400,270.610 148.703 C 271.191 149.007,271.948 149.256,272.293 149.257 C 272.637 149.258,273.022 149.426,273.148 149.630 C 273.274 149.833,273.680 150.000,274.051 150.000 C 274.421 150.000,274.932 150.250,275.185 150.556 C 275.439 150.861,276.001 151.115,276.434 151.119 C 276.868 151.124,277.639 151.454,278.148 151.852 C 278.657 152.250,279.345 152.580,279.677 152.584 C 280.008 152.589,280.487 152.843,280.741 153.148 C 280.994 153.454,281.394 153.704,281.628 153.704 C 281.862 153.704,282.940 154.287,284.022 155.000 C 285.105 155.713,286.143 156.296,286.329 156.296 C 286.515 156.296,286.667 156.473,286.667 156.689 C 286.667 156.904,286.833 156.978,287.037 156.852 C 287.241 156.726,287.407 156.783,287.407 156.979 C 287.407 157.175,287.866 157.504,288.426 157.711 C 288.986 157.917,289.929 158.517,290.521 159.043 C 291.112 159.569,291.731 160.000,291.895 160.000 C 292.059 160.000,292.492 160.301,292.856 160.668 C 293.220 161.035,294.644 162.216,296.019 163.292 C 297.394 164.369,298.519 165.429,298.519 165.649 C 298.519 165.869,298.623 165.945,298.751 165.817 C 299.139 165.428,305.610 172.292,307.705 175.314 C 308.785 176.873,309.551 178.148,309.407 178.148 C 309.264 178.148,309.463 178.440,309.851 178.796 C 310.238 179.153,310.871 180.028,311.257 180.741 C 311.643 181.454,312.244 182.370,312.593 182.778 C 313.845 184.239,316.892 190.675,317.327 192.778 C 317.661 194.392,319.378 194.714,321.273 193.518 C 321.693 193.253,322.579 192.923,323.241 192.785 C 323.903 192.647,324.444 192.408,324.444 192.255 C 324.444 192.101,324.664 191.975,324.932 191.975 C 325.199 191.975,325.908 191.638,326.506 191.226 C 328.606 189.778,329.818 189.095,330.124 189.188 C 330.295 189.239,330.523 188.942,330.631 188.529 C 330.739 188.116,331.040 187.778,331.300 187.778 C 331.560 187.778,331.869 187.528,331.986 187.222 C 332.103 186.917,332.454 186.667,332.766 186.667 C 333.078 186.667,333.333 186.494,333.333 186.284 C 333.333 186.073,333.935 185.300,334.670 184.564 C 335.405 183.829,336.035 183.043,336.069 182.817 C 336.104 182.592,336.290 182.157,336.483 181.852 C 337.203 180.710,338.148 178.719,338.148 178.342 C 338.148 178.128,338.509 177.288,338.950 176.476 C 340.184 174.206,340.205 165.776,338.981 164.120 C 338.523 163.500,338.148 162.840,338.148 162.654 C 338.148 161.983,327.024 150.370,326.381 150.370 C 326.213 150.370,325.668 149.877,325.168 149.275 C 324.668 148.672,324.091 148.172,323.885 148.164 C 323.679 148.155,323.062 147.731,322.512 147.222 C 321.963 146.713,321.416 146.296,321.297 146.296 C 321.089 146.296,320.569 145.904,319.458 144.907 C 319.174 144.653,318.763 144.444,318.545 144.444 C 318.327 144.444,318.148 144.278,318.148 144.074 C 318.148 143.870,317.990 143.704,317.796 143.704 C 317.603 143.704,316.704 143.204,315.798 142.593 C 314.893 141.981,313.884 141.481,313.557 141.481 C 313.230 141.481,312.963 141.327,312.963 141.139 C 312.963 140.791,305.273 136.947,302.222 135.770 C 301.306 135.417,299.939 134.807,299.186 134.416 C 298.433 134.024,297.516 133.703,297.149 133.701 C 296.782 133.700,296.004 133.450,295.421 133.146 C 294.837 132.842,294.035 132.593,293.637 132.593 C 293.240 132.593,292.550 132.396,292.105 132.155 C 291.094 131.609,288.277 130.890,283.610 129.986 C 281.623 129.602,279.373 129.124,278.610 128.925 C 277.847 128.726,275.972 128.473,274.444 128.364 C 272.917 128.254,270.769 127.994,269.672 127.786 C 267.260 127.328,253.589 127.365,250.741 127.837 M41.197 224.444 C 41.197 225.157,41.273 225.449,41.366 225.093 C 41.460 224.736,41.460 224.153,41.366 223.796 C 41.273 223.440,41.197 223.731,41.197 224.444 " stroke="none" fill="#636363" fill-rule="evenodd"></path><path id="path4" d="M233.333 228.827 C 233.333 229.930,233.500 230.741,233.726 230.741 C 233.984 230.741,234.032 230.136,233.864 228.981 C 233.517 226.590,233.333 226.536,233.333 228.827 M124.160 237.037 C 124.160 237.750,124.236 238.042,124.329 237.685 C 124.423 237.329,124.423 236.745,124.329 236.389 C 124.236 236.032,124.160 236.324,124.160 237.037 M232.679 238.889 C 232.679 239.602,232.755 239.894,232.848 239.537 C 232.941 239.181,232.941 238.597,232.848 238.241 C 232.755 237.884,232.679 238.176,232.679 238.889 M124.175 255.926 C 124.175 256.843,124.247 257.218,124.335 256.759 C 124.424 256.301,124.424 255.551,124.335 255.093 C 124.247 254.634,124.175 255.009,124.175 255.926 M50.043 265.463 C 50.018 266.788,50.158 267.778,50.370 267.778 C 50.808 267.778,50.815 266.678,50.392 264.630 C 50.099 263.214,50.083 263.251,50.043 265.463 M50.043 281.389 C 50.082 283.704,50.108 283.779,50.392 282.407 C 50.818 280.347,50.809 278.889,50.370 278.889 C 50.156 278.889,50.018 279.941,50.043 281.389 M268.990 287.037 C 268.990 287.954,269.062 288.329,269.150 287.870 C 269.239 287.412,269.239 286.662,269.150 286.204 C 269.062 285.745,268.990 286.120,268.990 287.037 M168.148 299.630 C 168.148 299.845,169.375 300.000,171.089 300.000 C 172.707 300.000,174.133 299.833,174.259 299.630 C 174.405 299.394,173.337 299.259,171.318 299.259 C 169.452 299.259,168.148 299.412,168.148 299.630 M268.982 306.852 C 268.986 307.667,269.062 307.956,269.151 307.496 C 269.239 307.035,269.236 306.368,269.143 306.014 C 269.051 305.660,268.978 306.037,268.982 306.852 M188.889 390.000 C 188.889 390.204,189.264 390.368,189.722 390.365 C 190.396 390.360,190.449 390.290,190.000 390.000 C 189.282 389.536,188.889 389.536,188.889 390.000 " stroke="none" fill="#fc3c3c" fill-rule="evenodd"></path><path id="path5" d="" stroke="none" fill="#1002c1c" fill-rule="evenodd"></path><path id="path6" d="" stroke="none" fill="#1002c1c" fill-rule="evenodd"></path><path id="path7" d="" stroke="none" fill="#1002c1c" fill-rule="evenodd"></path><path id="path8" d="" stroke="none" fill="#1002c1c" fill-rule="evenodd"></path></g></svg>